<svg width="23" height="25" viewBox="0 0 23 25" fill="none" xmlns="http://www.w3.org/2000/svg">
<circle cx="11.7009" cy="11.9299" r="11.2385" fill="#4460A0"/>
<path d="M15.9197 5.32724H13.5837C12.9979 5.29465 12.4118 5.38605 11.8649 5.59525C11.3181 5.80446 10.8233 6.12661 10.4138 6.53997C10.0043 6.95333 9.6897 7.44828 9.49123 7.99143C9.29276 8.53458 9.21504 9.11328 9.26329 9.68849V11.6994H6.91486C6.86658 11.6994 6.81878 11.7087 6.77419 11.7269C6.7296 11.7451 6.6891 11.7718 6.65501 11.8054C6.62092 11.8391 6.5939 11.879 6.57552 11.9229C6.55713 11.9668 6.54773 12.0138 6.54785 12.0613V14.9747C6.54785 15.0705 6.58652 15.1623 6.65535 15.23C6.72417 15.2977 6.81752 15.3358 6.91486 15.3358H9.26329V23.771C9.26329 23.8667 9.30196 23.9585 9.37078 24.0262C9.43961 24.0939 9.53296 24.132 9.63029 24.132H12.6947C12.792 24.132 12.8854 24.0939 12.9542 24.0262C13.023 23.9585 13.0617 23.8667 13.0617 23.771V15.3348H15.8075C15.9049 15.3348 15.9982 15.2968 16.067 15.2291C16.1359 15.1614 16.1745 15.0696 16.1745 14.9738V12.0613C16.1745 11.9653 16.1358 11.8733 16.0668 11.8054C15.9978 11.7375 15.9042 11.6994 15.8066 11.6994H13.0617V9.99433C13.0617 9.17502 13.2604 8.75882 14.3452 8.75882H15.9188C16.0161 8.75882 16.1095 8.72078 16.1783 8.65307C16.2471 8.58537 16.2858 8.49354 16.2858 8.39779V5.692C16.2863 5.64436 16.2772 5.59708 16.259 5.55291C16.2409 5.50874 16.214 5.46854 16.18 5.43463C16.1459 5.40072 16.1054 5.37377 16.0608 5.35534C16.0161 5.33691 15.9682 5.32736 15.9197 5.32724Z" fill="white"/>
</svg>
