<svg width="24" height="24" viewBox="0 0 24 24" fill="none" xmlns="http://www.w3.org/2000/svg">
<path d="M6.07994 14.2142L5.27981 17.154L2.35323 17.2149C1.46799 15.5933 0.997615 13.7839 0.982784 11.9432C0.967953 10.1026 1.40911 8.28615 2.26811 6.65088L4.87278 7.12129L6.01339 9.6683C5.5002 11.1454 5.52317 12.7519 6.07839 14.2142H6.07994Z" fill="#FBBB00"/>
<path d="M23.7821 9.7417C24.1724 11.7589 23.997 13.8425 23.2748 15.7691C22.5525 17.6956 21.3106 19.3923 19.6824 20.6772L16.406 20.5113L15.9418 17.6598C17.2963 16.8785 18.3371 15.6633 18.89 14.2176H12.7412V9.7417H23.7883H23.7821Z" fill="#518EF8"/>
<path d="M19.6827 20.675C18.3666 21.7148 16.834 22.457 15.1937 22.8488C13.5534 23.2406 11.8455 23.2725 10.1912 22.9423C8.5369 22.612 6.97678 21.9277 5.6215 20.9378C4.26622 19.9479 3.14901 18.6768 2.34912 17.2146L6.07584 14.2139C6.42567 15.1314 6.97504 15.9627 7.68555 16.6496C8.39605 17.3365 9.25053 17.8624 10.1892 18.1906C11.1279 18.5187 12.1281 18.6412 13.1199 18.5494C14.1118 18.4576 15.0712 18.1537 15.9312 17.6591L19.6827 20.675Z" fill="#28B446"/>
<path d="M19.8229 3.14686L16.0978 6.14602C15.2245 5.61143 14.2398 5.27749 13.2171 5.16909C12.1944 5.06068 11.1601 5.1806 10.191 5.51991C9.22199 5.85921 8.34323 6.40917 7.62018 7.12884C6.89714 7.84851 6.34842 8.71934 6.0149 9.67651L2.26807 6.65147C3.05874 5.15099 4.18109 3.84382 5.55265 2.82598C6.92422 1.80813 8.51015 1.10547 10.194 0.76961C11.8778 0.43375 13.6167 0.473222 15.283 0.885128C16.9493 1.29703 18.5006 2.07091 19.8229 3.14991V3.14686Z" fill="#F14336"/>
</svg>
