<svg width="24" height="24" viewBox="0 0 22 22" fill="none" xmlns="http://www.w3.org/2000/svg">
<path d="M20.625 10.3125H15.125V6.875H18.7845C18.9219 6.875 19.0562 6.91617 19.17 6.9932C19.2838 7.07024 19.3718 7.17959 19.4229 7.30717L20.625 10.3125Z" stroke="#F3601E" stroke-linecap="round" stroke-linejoin="round"/>
<path d="M1.375 12.375H15.125" stroke="#F3601E" stroke-linecap="round" stroke-linejoin="round"/>
<path d="M16.1562 18.5625C17.2953 18.5625 18.2188 17.6391 18.2188 16.5C18.2188 15.3609 17.2953 14.4375 16.1562 14.4375C15.0172 14.4375 14.0938 15.3609 14.0938 16.5C14.0938 17.6391 15.0172 18.5625 16.1562 18.5625Z" stroke="#F3601E" stroke-linecap="round" stroke-linejoin="round"/>
<path d="M5.84375 18.5625C6.98284 18.5625 7.90625 17.6391 7.90625 16.5C7.90625 15.3609 6.98284 14.4375 5.84375 14.4375C4.70466 14.4375 3.78125 15.3609 3.78125 16.5C3.78125 17.6391 4.70466 18.5625 5.84375 18.5625Z" stroke="#F3601E" stroke-linecap="round" stroke-linejoin="round"/>
<path d="M14.0938 16.5H7.90625" stroke="#F3601E" stroke-linecap="round" stroke-linejoin="round"/>
<path d="M3.78125 16.5H2.0625C1.88016 16.5 1.7053 16.4276 1.57636 16.2986C1.44743 16.1697 1.375 15.9948 1.375 15.8125V6.1875C1.375 6.00516 1.44743 5.8303 1.57636 5.70136C1.7053 5.57243 1.88016 5.5 2.0625 5.5H15.125V14.7138" stroke="#F3601E" stroke-linecap="round" stroke-linejoin="round"/>
<path d="M15.125 14.7138V10.3125H20.625V15.8125C20.625 15.9948 20.5526 16.1697 20.4236 16.2986C20.2947 16.4276 20.1198 16.5 19.9375 16.5H18.2188" stroke="#F3601E" stroke-linecap="round" stroke-linejoin="round"/>
</svg>
